#!OML:ASF X:\für Bonn\!DataBase\2005_08_10_Bjorn_Final\c3d\bjorn.ASF
:FULLY-SPECIFIED
:DEGREES
47
root 1.59516 18.5852 6.56433 -183.189 -10.6902 -177.499
lowerback -0.90086 -1.14917 -1.82189
upperback 9.33921 -2.02928 -4.26795
thorax 10.3286 -1.31211 -3.82273
lowerneck -1.08012 4.41391 1.3859
upperneck 25.0235 3.52335 0.55633
head 7.90209 0.969859 0.0719942
rclavicle -3.77691e-014 -5.56597e-014
rhumerus -37.0183 -14.9469 -82.6226
rradius 31.3361
rwrist 3.71656
rhand -6.53308 7.79089
rfingers 7.12502
rthumb 19.3198 -21.2694
lclavicle -3.77691e-014 -5.56597e-014
lhumerus -24.6434 -16.4578 85.0929
lradius 37.1851
lwrist -16.9671
lhand -12.7725 -6.96327
lfingers 7.12502
lthumb 13.3125 22.5915
rfemur -28.4325 -7.28651 19.3202
rtibia 54.7611
rfoot -16.454 13.0901
rtoes -14.0283
lfemur -6.44179 11.6907 -15.2061
ltibia 39.0707
lfoot -22.8411 -9.66831
ltoes -1.87857
48
root 1.5911 18.5885 6.53238 -183.083 -10.6304 -177.582
lowerback -0.921319 -1.1464 -1.77682
upperback 9.29903 -2.02173 -4.19097
thorax 10.2964 -1.30366 -3.76159
lowerneck -1.05173 4.43809 1.37864
upperneck 24.9264 3.61214 0.401503
head 7.86736 1.00504 0.0283161
rclavicle 3.81667e-014 3.18055e-014
rhumerus -36.9315 -15.0627 -82.4148
rradius 31.3912
rwrist 3.44975
rhand -6.49517 7.88717
rfingers 7.12502
rthumb 19.3563 -21.1695
lclavicle 3.81667e-014 3.18055e-014
lhumerus -24.7734 -16.6668 85.2358
lradius 37.5963
lwrist -17.3108
lhand -13.1709 -6.78655
lfingers 7.12502
lthumb 12.9284 22.7929
rfemur -28.6331 -7.3551 19.2566
rtibia 54.3853
rfoot -16.5947 13.3309
rtoes -13.8795
lfemur -6.30323 11.7442 -15.2847
ltibia 38.8644
lfoot -22.9105 -9.63606
ltoes -2.22564
49
root 1.58682 18.5914 6.49923 -182.986 -10.5555 -177.667
lowerback -0.940657 -1.13114 -1.72803
upperback 9.27254 -1.99974 -4.10821
thorax 10.2797 -1.2888 -3.69601
lowerneck -1.09653 4.45443 1.37161
upperneck 24.8755 3.68552 0.260109
head 7.86115 1.03403 -0.0107261
rclavicle 1.63003e-014 3.02153e-014
rhumerus -36.8507 -15.1585 -82.2268
rradius 31.4774
rwrist 3.19725
rhand -6.47345 8.00644
rfingers 7.12502
rthumb 19.3772 -21.0481
lclavicle 1.63003e-014 3.02153e-014
lhumerus -24.8954 -16.9354 85.3793
lradius 38.0302
lwrist -17.6166
lhand -13.494 -6.58866
lfingers 7.12502
lthumb 12.617 23.0103
rfemur -28.8165 -7.3626 19.1891
rtibia 53.9949
rfoot -16.7003 13.5478
rtoes -13.7028
lfemur -6.15614 11.7669 -15.3694
ltibia 38.6629
lfoot -22.9633 -9.59393
ltoes -2.33583
50
root 1.58242 18.5942 6.46615 -182.878 -10.491 -177.737
lowerback -0.965034 -1.10541 -1.64664
upperback 9.26102 -1.96693 -4.02214
thorax 10.2825 -1.26647 -3.64549
lowerneck -1.22719 4.46923 1.3846
upperneck 24.8598 3.75218 0.144665
head 7.88218 1.06523 -0.0433588
rclavicle -3.18055e-015 -4.77083e-015
rhumerus -36.7797 -15.2128 -82.0749
rradius 31.6139
rwrist 2.95672
rhand -6.47383 8.13374
rfingers 7.12502
rthumb 19.3768 -20.9208
lclavicle -3.18055e-015 -4.77083e-015
lhumerus -24.9424 -17.2447 85.5214
lradius 38.4274
lwrist -17.8421
lhand -13.7565 -6.42425
lfingers 7.12502
lthumb 12.3639 23.1901
rfemur -29.0188 -7.39768 19.1336
rtibia 53.6055
rfoot -16.8053 13.7809
rtoes -13.5186
lfemur -6.02124 11.7903 -15.4395
ltibia 38.4604
lfoot -23.0263 -9.56739
ltoes -2.52138
51
root 1.57865 18.5974 6.43302 -182.766 -10.4392 -177.82
lowerback -0.969833 -1.08839 -1.57996
upperback 9.24544 -1.94608 -3.93843
thorax 10.2688 -1.25147 -3.58918
lowerneck -1.336 4.48892 1.37792
upperneck 24.8446 3.82064 0.0471069
head 7.89875 1.09588 -0.0670529
rclavicle 1.66979e-014 -5.24792e-014
rhumerus -36.741 -15.1597 -81.9922
rradius 31.8049
rwrist 2.66514
rhand -6.55796 8.22548
rfingers 7.12502
rthumb 19.2959 -20.8372
lclavicle 1.66979e-014 -5.24792e-014
lhumerus -25.0017 -17.5823 85.6458
lradius 38.8306
lwrist -18.073
lhand -14.0296 -6.27285
lfingers 7.12502
lthumb 12.1005 23.3572
rfemur -29.2187 -7.40331 19.0637
rtibia 53.2098
rfoot -16.8762 13.9851
rtoes -13.2355
lfemur -5.89805 11.8329 -15.5156
ltibia 38.2615
lfoot -23.0685 -9.56255
ltoes -2.64227
52
root 1.57519 18.6004 6.39849 -182.669 -10.3739 -177.904
lowerback -0.969565 -1.06442 -1.51565
upperback 9.23742 -1.91743 -3.84794
thorax 10.2612 -1.23366 -3.52387
lowerneck -1.38079 4.50261 1.38295
upperneck 24.7855 3.88975 -0.0895445
head 7.89026 1.12508 -0.106657
rclavicle 2.3059e-014 1.59028e-015
rhumerus -36.7085 -15.1067 -81.9008
rradius 32.0026
rwrist 2.39283
rhand -6.62253 8.33195
rfingers 7.12502
rthumb 19.2338 -20.7369
lclavicle 2.3059e-014 1.59028e-015
lhumerus -25.0564 -17.8992 85.7807
lradius 39.24
lwrist -18.2438
lhand -14.2067 -6.12839
lfingers 7.12502
lthumb 11.9298 23.5117
rfemur -29.403 -7.40061 18.9906
rtibia 52.8224
rfoot -16.9989 14.1192
rtoes -13.1627
lfemur -5.75478 11.9303 -15.5783
ltibia 38.0661
lfoot -23.1164 -9.57415
ltoes -2.77522
53
root 1.57169 18.603 6.36413 -182.572 -10.3296 -177.959
lowerback -0.940613 -1.04692 -1.4295
upperback 9.20712 -1.89757 -3.73636
thorax 10.2106 -1.21807 -3.44582
lowerneck -1.36564 4.51804 1.38764
upperneck 24.6912 3.96153 -0.225583
head 7.85931 1.15581 -0.146836
rclavicle -1.19271e-015 -9.54166e-015
rhumerus -36.6823 -15.184 -81.7674
rradius 32.1326
rwrist 2.32235
rhand -6.69593 8.44276
rfingers 7.12502
rthumb 19.1632 -20.6331
lclavicle -1.19271e-015 -9.54166e-015
lhumerus -25.1612 -18.2204 85.9368
lradius 39.67
lwrist -18.3578
lhand -14.3443 -6.05161
lfingers 7.12502
lthumb 11.7971 23.5961
rfemur -29.5884 -7.38306 18.9465
rtibia 52.4343
rfoot -17.1569 14.204
rtoes -13.3344
lfemur -5.62555 12.0531 -15.5932
ltibia 37.8827
lfoot -23.1192 -9.69161
ltoes -2.71403
